<svg id="圖層_1" data-name="圖層 1" xmlns="http://www.w3.org/2000/svg" viewBox="0 0 335 55"><defs><style>.cls-1{fill:#0e141b;}</style></defs><title>宏南logo_文字</title><path class="cls-1" d="M22.93,14.13l5.41,3.92a1.67,1.67,0,0,0,1.91,0l5.42-3.92a1.46,1.46,0,0,0,.36-2,1.54,1.54,0,0,0-.36-.36l-5.4-3.91a1.67,1.67,0,0,0-1.91,0l-5.43,3.91a1.48,1.48,0,0,0-.3,2.06A2.35,2.35,0,0,0,22.93,14.13Z"/><path class="cls-1" d="M22.28,27a3.64,3.64,0,0,0-4.91.86,3.21,3.21,0,0,0-.19.31L7,43.92a2.29,2.29,0,0,0,.5,3.21l.16.11a2.56,2.56,0,0,0,3.46-.62L23,31.92l.24-.29a3.26,3.26,0,0,0-.75-4.54l-.16-.1Z"/><path class="cls-1" d="M51.31,42.26,39.47,27.57A2.57,2.57,0,0,0,36,27a2.3,2.3,0,0,0-.77,3.16l.11.16L45.54,46a3.21,3.21,0,0,0,.19.31,3.66,3.66,0,0,0,4.91.89,3.25,3.25,0,0,0,1-4.49c0-.06-.07-.11-.1-.16a3.36,3.36,0,0,0-.24-.29Z"/><path class="cls-1" d="M49.45,19H9.17a2.84,2.84,0,0,0-2.9,2.77h0a2.83,2.83,0,0,0,2.9,2.76H49.45a2.84,2.84,0,0,0,2.91-2.76h0A2.84,2.84,0,0,0,49.45,19Z"/><path class="cls-1" d="M161.22,8.93H120.09a2.9,2.9,0,0,0-3,2.82,2.9,2.9,0,0,0,3,2.82h18.22l.35,9.51.24,6.75a18.22,18.22,0,0,1-.66,5.83,7.84,7.84,0,0,1-2.88,4.19,9.92,9.92,0,0,1-2.43,1.28,18.91,18.91,0,0,1-3,.72h0a2.61,2.61,0,0,0-2.18,2.61,2.46,2.46,0,0,0,2.61,2.29l.23,0h.16a24.23,24.23,0,0,0,3.79-.66,16,16,0,0,0,4-1.74,13.62,13.62,0,0,0,5.51-6.72A23.5,23.5,0,0,0,145.59,31L145.9,24l.35-9.47h15a2.9,2.9,0,0,0,3-2.81,2.9,2.9,0,0,0-3-2.82Z"/><path class="cls-1" d="M81.79,39a1.74,1.74,0,0,0-1.33.61h0a21.32,21.32,0,0,0-3.19,4.3h0a2.46,2.46,0,0,0-.39,1.32,2.76,2.76,0,0,0,5.5,0s.52-2.54.88-3.85a1.49,1.49,0,0,0,.21-.77A1.65,1.65,0,0,0,81.77,39Z"/><path class="cls-1" d="M91.08,45.09a.21.21,0,0,0,0-.11v-.23a37.91,37.91,0,0,1-.33-4V40.7a1.26,1.26,0,0,0-.06-.38h0a1.7,1.7,0,0,0-2.14-1.12,1.72,1.72,0,0,0-1.08,1h0a25,25,0,0,0-1.73,4.65,0,0,0,0,1,0,0,.2.2,0,0,1,0,.11h0c0,.13,0,.27,0,.41a2.76,2.76,0,0,0,3,2.55,2.73,2.73,0,0,0,2.55-2.55v-.22h0Z"/><path class="cls-1" d="M99.69,44.92v-.08a.85.85,0,0,0,0-.17A32.1,32.1,0,0,0,98.54,40c0-.06-.06-.12-.09-.18h0a1.72,1.72,0,0,0-3.13.48,19.55,19.55,0,0,0-1.06,4.85h0v.18a1.42,1.42,0,0,0,0,.36A2.71,2.71,0,0,0,97,47.9a2.66,2.66,0,0,0,2.75-2.56v-.1l0-.32Z"/><path class="cls-1" d="M107.89,43.73a13.49,13.49,0,0,0-.9-1.1,5.21,5.21,0,0,1-1.45-2.22,1.7,1.7,0,0,0-3.38.22s-.14,4.89,1.6,6.53a1.46,1.46,0,0,0,.33.22,2.82,2.82,0,0,0,1.59.49,2.66,2.66,0,0,0,2.74-2.57v-.06a2.54,2.54,0,0,0-.52-1.52Z"/><path class="cls-1" d="M62.21,27.64h0v.26a1.92,1.92,0,0,0,3.81.16h0a34.41,34.41,0,0,0-.67-9.76h0A1.89,1.89,0,0,0,63.49,17a1.87,1.87,0,0,0-1.94,1.79v0a1.6,1.6,0,0,0,.09.53A40.71,40.71,0,0,1,62.21,27.64Z"/><path class="cls-1" d="M73.08,21.44a11.84,11.84,0,0,0,5.74-5.75h0a2,2,0,0,0,.12-.59,2.25,2.25,0,0,0-2.16-2.33h0a2.32,2.32,0,0,0-2.3,1.45h0s-.67,1.9-1,2.56a8.76,8.76,0,0,1-.53.94c-.05-2.73-.16-5.42-.28-7.89h0a.49.49,0,0,0,0-.17,3.18,3.18,0,0,0-6.33.49,1.13,1.13,0,0,0,0,.18A101.6,101.6,0,0,1,67,28.53a47.28,47.28,0,0,1-1.33,8.86,24,24,0,0,1-1.47,4.11A12.45,12.45,0,0,1,61.91,45h0a1.62,1.62,0,0,0-.43,1,2,2,0,0,0,.34,1.25,1.53,1.53,0,0,0,1.18.6,1.86,1.86,0,0,0,1.33-.5h0a24.43,24.43,0,0,0,5.75-7.8,18.81,18.81,0,0,0,1.52-4.75,44.54,44.54,0,0,1,1.54,5.05,1.17,1.17,0,0,0,0,.2,2.38,2.38,0,0,0,2.86,1.38A2.14,2.14,0,0,0,77.84,39a1.74,1.74,0,0,0,0-.22,1.43,1.43,0,0,0-.08-.22,54,54,0,0,0-5.2-10.29c.2-2.15.29-4.43.31-6.72l.18-.09Z"/><path class="cls-1" d="M108.07,33.29l-.17-.17a30,30,0,0,1-4.1-4.9,45.55,45.55,0,0,1-3.32-5.64l-.09-.15h5.51a2,2,0,0,0,0-4h-4.65a28.79,28.79,0,0,0,.33-3.22c.1-2.46.27-5.36.27-5.36h0V9.77a2.58,2.58,0,0,0-2.8-2.32,2.53,2.53,0,0,0-2.43,2.41h0s0,3.32,0,4.11A44.42,44.42,0,0,1,96,18.44H94.21a2.52,2.52,0,0,0-.54.08c.11-.42.24-.83.34-1.26a20.77,20.77,0,0,0,.42-5.1h0a3.22,3.22,0,0,0-6.31-.46H85.59c.17-.73.27-1.28.32-1.62A2.64,2.64,0,0,0,86,9.46a2.84,2.84,0,0,0-5.66,0v.12h0A47,47,0,0,1,76,23.81h0a1.36,1.36,0,0,0-.32.86,1.43,1.43,0,0,0,1.45,1.39h0a1.49,1.49,0,0,0,1-.44,5.9,5.9,0,0,0,.71-.86,11.71,11.71,0,0,0,.73-1,36.07,36.07,0,0,0,4.7-8.31H88a8.05,8.05,0,0,1-.11,1.09q-.17,1.38-.54,3.21c-.42-.19-.71-.34-.86-.42L86,19.07a1.89,1.89,0,0,0-.47-.11A2.05,2.05,0,0,0,83.41,20a1.89,1.89,0,0,0,.66,2.44c.09.06,1.14.57,1.45.72l.83.4c-.21.67-.43,1.33-.67,2-.84-.38-1.44-.67-1.68-.8l-.53-.27a1.89,1.89,0,0,0-.47-.11,2.05,2.05,0,0,0-2.08,1.08,1.89,1.89,0,0,0,.66,2.44l1.45.72,1.09.53a20.59,20.59,0,0,1-4.3,5.88h0a1.38,1.38,0,0,0-.35,1,1.52,1.52,0,0,0,1.64,1.36,1.55,1.55,0,0,0,.66-.21c1-.49,7.27-5.79,10.83-15.54a2.22,2.22,0,0,0,1.55.67h.92A36.09,36.09,0,0,1,89,35h0a1.37,1.37,0,0,0-.41,1.09,1.52,1.52,0,0,0,1.64,1.33,1.59,1.59,0,0,0,.86-.32h0a15,15,0,0,0,1.64-1.45,32.17,32.17,0,0,0,5.71-8.34c.47,1,1,2,1.5,3a34.22,34.22,0,0,0,4.09,6.1,2.11,2.11,0,0,0,.19.23,2.86,2.86,0,0,0,2,.84,2.26,2.26,0,0,0,1.8-.85,2.85,2.85,0,0,0,.62-1.78,2.2,2.2,0,0,0-.62-1.57Z"/><path class="cls-1" d="M104.35,15.68h0A2,2,0,0,0,106.23,17a1.92,1.92,0,0,0,2-1.84v0a1.75,1.75,0,0,0-.29-1l-.05-.09c-.56-.84-3-3.51-3-3.51a1.19,1.19,0,0,0-.8-.32A1.1,1.1,0,0,0,103,11.32h0a1.09,1.09,0,0,0,.1.44l1.33,3.93Z"/><path class="cls-1" d="M267.11,11.09H256c0-.13,0-.25,0-.38a4.22,4.22,0,0,0-8.43,0,2.45,2.45,0,0,0,0,.38H236.08c-4.94.13-7.7,2.69-7.86,7.3a2.9,2.9,0,0,0,2.86,2.92h.11a2.9,2.9,0,0,0,3-2.73,2.74,2.74,0,0,1,0-.59v-.71a2.56,2.56,0,0,1,2.61-2.49h30a2.55,2.55,0,0,1,2.61,2.49V18a3.13,3.13,0,0,0,0,.59,2.9,2.9,0,0,0,3,2.73h.1a2.9,2.9,0,0,0,2.87-2.91h0c-.17-4.72-3.1-7.3-8.21-7.3Z"/><path class="cls-1" d="M246.08,21.45l-.05,0a3,3,0,0,0,.17-1,3.56,3.56,0,0,0-3.65-3.48,3.78,3.78,0,0,0-2.31.79h0a3.82,3.82,0,0,0-.79.86,37.75,37.75,0,0,1-4.13,4.8,29.26,29.26,0,0,1-5.91,4.27h0a2.08,2.08,0,0,0-1.15,1.86,2.12,2.12,0,0,0,2.18,2.07h0a2.27,2.27,0,0,0,.77-.13h0c.58-.16,1.54-.42,2.72-.84V45.1a2.66,2.66,0,1,0,5.31,0V28.19a18.22,18.22,0,0,0,6.28-5.75,3.14,3.14,0,0,0,.44-.75,3,3,0,0,0,.16-.26Z"/><path class="cls-1" d="M268.14,26.43h-6.68V22.7h3.94a2,2,0,0,0,2.06-1.92v-.07h0a1.82,1.82,0,0,0-.24-.91,1.67,1.67,0,0,0-1.56-1.05H250a1.34,1.34,0,0,0-.35,0A2,2,0,0,0,248,20.72h0a2,2,0,0,0,2,2h4.22v3.73h-6.84a3.41,3.41,0,0,0-3.48,3.32h0V44.37a3.4,3.4,0,0,0,3.48,3.32h20.83a3.4,3.4,0,0,0,3.48-3.31h0V29.76a3.4,3.4,0,0,0-3.48-3.32h0Zm-3.82,18.08H251.14V38.6h13.18Zm0-9.1H251.14V29.59h13.18Z"/><path class="cls-1" d="M322.87,35.37H291.94a3.39,3.39,0,0,0-3.48,3.32h0v5.5a3.4,3.4,0,0,0,3.47,3.32h30.94a3.41,3.41,0,0,0,3.48-3.32h0V38.67A3.39,3.39,0,0,0,322.87,35.37Zm-26.2,3.16h21.45v5.79H296.67Z"/><path class="cls-1" d="M329.21,18.83,314.6,14.22a2.75,2.75,0,0,0,.19-1,2.86,2.86,0,0,0-.78-2,3.28,3.28,0,0,0-.87-.66,3.85,3.85,0,0,0-1.05-.31H312a1,1,0,0,1-.25-.06,1,1,0,0,1-.29-.19,1.06,1.06,0,0,1-.26-.49A2.75,2.75,0,0,0,311,9a3.46,3.46,0,0,0-.61-.91,4,4,0,0,0-1.89-1.16,4.3,4.3,0,0,0-1.07-.14,3.91,3.91,0,0,0-3.72,2.57c0,.12-.06.25-.1.37-.22.48-.77.55-1.25.66a3,3,0,0,0-2.29,2.83,2.88,2.88,0,0,0,.2,1l-14.61,4.59a1.89,1.89,0,0,0-1.29,2.34s0,0,0,.06a2,2,0,0,0,1.89,1.33,2.19,2.19,0,0,0,.63-.1L307.44,16,328,22.45a2.19,2.19,0,0,0,.63.1,2,2,0,0,0,1.89-1.33,1.88,1.88,0,0,0-1.22-2.36l-.07,0Z"/><path class="cls-1" d="M327.92,28H312.65V24.39h2.42a2,2,0,0,0,.65-3.93,1.78,1.78,0,0,0-.65,0H299.71a2,2,0,1,0-.64,3.93,2.29,2.29,0,0,0,.64,0h2.43V28H286.86a2,2,0,0,0-2.06,1.92V30h0a2,2,0,0,0,2,2h15.35v4a1.61,1.61,0,0,0,1.65,1.58H311A1.61,1.61,0,0,0,312.66,36h0V32h15.27A2,2,0,0,0,330,30V30h0a2,2,0,0,0-2-2h-.09Z"/><path class="cls-1" d="M217.63,43.73h-10.2v-2h9.4a1.58,1.58,0,0,0,0-3.16h-9.4V36.87h7.62a2.31,2.31,0,0,0,2.37-2.26v-11a2.31,2.31,0,0,0-2.37-2.25h-7.62v-1.7h9.49a1.59,1.59,0,1,0,0-3.17h-9.5V14c1.57-.28,3.15-.61,4.71-1l.35-.09a3.13,3.13,0,0,0,1.9-1.57A2.64,2.64,0,0,0,214.46,9a3.3,3.3,0,0,0-3.94-1.83l-.3.12A70.39,70.39,0,0,1,194.06,11,2.2,2.2,0,0,0,192,13.15a2.13,2.13,0,0,0,2.24,2h.11c1.94,0,3.87-.12,5.81-.28v1.64h-9.5a1.58,1.58,0,1,0,0,3.16h9.5v1.7h-7.62a2.31,2.31,0,0,0-2.37,2.26v11a2.31,2.31,0,0,0,2.37,2.25h7.62V38.6h-9.4a1.58,1.58,0,0,0,0,3.16h9.4v2H189.61a1.58,1.58,0,0,0,0,3.16h28a1.58,1.58,0,1,0,0-3.16h0ZM194,32.44h6V29.78h-6v-1h11.83V26.14H194v-1h19.4v.94h-6.58v2.65h6.58v.94H201v2.66H213.4v.93H194Z"/><path class="cls-1" d="M190.17,8.61a2.66,2.66,0,0,0-3.33-.75,1.37,1.37,0,0,0-.2.13,36.83,36.83,0,0,1-11.76,4.71,1.73,1.73,0,0,0-1.44,1.85,1.68,1.68,0,0,0,1.9,1.43h.09c1.16-.14,2.31-.32,3.46-.53V20h-3.2a1.83,1.83,0,0,0-1.86,1.78A1.77,1.77,0,0,0,175,23.42a1.71,1.71,0,0,0,.74.17h2.56l0,.18a39.36,39.36,0,0,1-5.67,13,1.92,1.92,0,0,0,.41,2.66,2,2,0,0,0,2.8-.32l.07-.09a50.57,50.57,0,0,0,3-4.08V45.16a2.33,2.33,0,1,0,4.65,0V29.6c.34.76.66,1.53,1,2.3a.46.46,0,0,0,.08.19,2.14,2.14,0,0,0,2.65,1,1.91,1.91,0,0,0,1.21-2.41,1.54,1.54,0,0,0-.08-.19l-.1-.2a55.78,55.78,0,0,0-4.2-6.74h2.4A1.61,1.61,0,0,0,188.13,22v0a.74.74,0,0,0,0-.21,1.84,1.84,0,0,0-1.8-1.79h-2.78V14.22A39.5,39.5,0,0,0,189.1,12l.26-.12a2.21,2.21,0,0,0,1-3,2.46,2.46,0,0,0-.19-.32Z"/></svg>