<svg id="圖層_1" data-name="圖層 1" xmlns="http://www.w3.org/2000/svg" viewBox="0 0 500 360"><defs><style>.cls-1{fill:#0e141b;}.cls-2{fill:none;}</style></defs><title>宏南logo</title><path d="M297.73,83.54a35.12,35.12,0,0,0-41.37-44.9,66.06,66.06,0,0,0-91.56-20.8A39.79,39.79,0,0,0,99.1,45.43,65.47,65.47,0,0,0,45.3,136a29.68,29.68,0,1,0,34.56,45,50.78,50.78,0,0,0,66-8.18l.21-.22a29.19,29.19,0,0,1,3.28,1.24c2.59,1.69,3.26,4.81,3.43,6.65V183c0,3.8.22,24,.4,28q.15,3.2.35,6.39l5.28-1.89c-.09-1.6-.17-3.18-.25-4.74-.18-4-.37-24.39-.41-27.8v-2.67c-.19-2.69-1.24-8.2-6.25-11.2-.78-.36-1.58-.68-2.38-1-4.38-1.65-9.08-2.46-13.7-3.46-12.08,8.66-27.65,15.3-42.33,9.34a31.33,31.33,0,0,1-6.91-3.91c-.68-.52-1.33-1.05-2-1.62,0,0,0,0,0-.05a1.78,1.78,0,0,1-.81-1.48,1.75,1.75,0,0,1,1.76-1.76,1.68,1.68,0,0,1,1.15.44,0,0,0,0,1,.05,0c.65.48,1.3.92,2,1.34A27.09,27.09,0,0,0,95,169.79c9,2.74,18.26-.08,26.18-4.61,1.69-1,3.31-2.13,4.9-3.31-15.43-5.49-29.79-16.35-34.86-32.39-.46-1.46-.83-3-1.16-4.46a2.81,2.81,0,0,1,2.2-3.65,2.89,2.89,0,0,1,3.12,2.49A41.63,41.63,0,0,0,96.67,128c3.34,9.56,11.42,16.74,20.39,21.51,6.27,3.34,13.53,5.2,20.53,6.33,6.83,1.1,13.54.8,20,3.57a32.56,32.56,0,0,1,7.19,4.29c0-6.11-.53-13.43-2.66-18.43-1.95-4.58-6.44-9.9-10-13.12a62.52,62.52,0,0,1-6.23-6.48,48.56,48.56,0,0,1-13.55-3,40.58,40.58,0,0,1-8.86-4.86A38.07,38.07,0,0,1,116.2,111a50,50,0,0,1-8.91-17.26,65.69,65.69,0,0,1-2.13-9.34c0-.32-.09-.63-.14-.95a1.7,1.7,0,0,1,1.37-1.88h0a1.67,1.67,0,0,1,2,1.31,64,64,0,0,0,2.79,9.53,45.39,45.39,0,0,0,9.06,15.09,33.38,33.38,0,0,0,6.57,5.5,34.89,34.89,0,0,0,7.69,3.57,36.94,36.94,0,0,0,5.79,1.28,64.4,64.4,0,0,1-7.87-21.87c-2.31-13.52-1.66-39.6-1.38-47.75a2.62,2.62,0,0,1,3-2.5,2.72,2.72,0,0,1,2.21,2.54c.49,7.26,2,28,3.55,38.28.2,1.32.45,2.63.72,3.94h0c9.72-2.14,17.52-7.75,21.88-16.91a52.31,52.31,0,0,0,4.34-15.29,70.53,70.53,0,0,0,.61-8.12,1.53,1.53,0,0,1,1.66-1.5h.1a1.52,1.52,0,0,1,1.4,1.44c.4,8.47-.55,17.48-3.67,25.38A36.08,36.08,0,0,1,156.68,90a36.38,36.38,0,0,1-14.31,7.22,48.07,48.07,0,0,0,10.2,18.09c4.79,5.14,11,8.63,16.41,13.16a27.84,27.84,0,0,1,9.49,15c4.37-6.31,10.33-9.86,19-13.69,8.14-3.59,15.22-7.45,19.32-14.51-6.08-4.51-13.14-7.56-18.25-13.33a37.12,37.12,0,0,1-8.8-20,63.16,63.16,0,0,1-.2-14.21A2,2,0,0,1,192.2,66,2.15,2.15,0,0,1,193.59,68a59.56,59.56,0,0,0,1.6,12.86,30.07,30.07,0,0,0,10.54,16.92,62.4,62.4,0,0,0,11,6.25c.34.16,1.68.89,3.25,1.77,1.23-6.92.88-14.1,1.07-21.1q.24-8.82.47-17.68c0-1.59.09-3.19.13-4.78a2.66,2.66,0,0,1,3.11-2.56,2.76,2.76,0,0,1,2.21,2.7c.22,8.45.25,16.92.62,25.37h0A46,46,0,0,0,238.44,87a30.3,30.3,0,0,0,11.92-5.1,30,30,0,0,0,10-12.87,1.53,1.53,0,0,1,1.91-.88,2,2,0,0,0,.26.09,1.58,1.58,0,0,1,1.05,2c-.38,1.13-.81,2.26-1.29,3.37a33.28,33.28,0,0,1-8.92,12.1,35.52,35.52,0,0,1-13.47,7.09,52.14,52.14,0,0,1-12,1.91c.42,10.89.16,21.86-6,31.29-3.33,5.11-7.59,8.37-12.84,11.48-2.27,1.35-4.69,2.72-6.9,4.33a22,22,0,0,0-5.66,5.67c-6.42,9.83-5.53,22.67-6.47,33.89-.19,2.34-.29,11.8-.36,19.05a10.12,10.12,0,0,1,1.49-.7l3.9-1.39c.07-6.52.16-14.59.33-16.51.2-2.37.31-4.83.43-7.19.43-8.65.86-17.6,5.17-24.2a19.81,19.81,0,0,1,5.84-5.31,31.12,31.12,0,0,0,45.65-18.65,31.14,31.14,0,0,0,45.16-42.89ZM66.35,139.33a7.12,7.12,0,0,0-5,3.51,1.78,1.78,0,0,0,.06,1.48.61.61,0,0,1,.18.09c1.25.81,1.77,2.06,1.24,4.08a14.22,14.22,0,0,1-1,2.71c-.57,1.36.11,2.72-.18,4.43a8.75,8.75,0,0,0-.39,2.71,30.94,30.94,0,0,0,1,3.1,4.76,4.76,0,0,1,0,2.15,6.87,6.87,0,0,0,.61,5.29,5.61,5.61,0,0,1,.86,3.28,3.07,3.07,0,0,1-.6,1.55l0,.07c-1.49,2.19-1.4,3.39-1.4,3.39l-.44.08A2.47,2.47,0,0,0,60,175.52a5.63,5.63,0,0,1-2.2-2,3.34,3.34,0,0,1-.52-1.15c-.65-2.58,1.35-4.43-.19-6.81-1.42-2.19-1.07-3.59-1-5.41.1-2.33-.91-2.45-.56-5.67.09-.84.83-2.36.94-3.3a14.89,14.89,0,0,0-.09-3,4.09,4.09,0,0,1,.67-2.69,3.34,3.34,0,0,1,1.6-1.24c.49-.66.72-1.26,1.16-1.91,0,0,0,0,0,0a8.7,8.7,0,0,1,6.36-4.46.74.74,0,0,1,.12,1.47ZM90.13,72.81a8.65,8.65,0,0,0-5.9,3.93,4.05,4.05,0,0,0,.11,1.81,3.15,3.15,0,0,1-.87,2.83c-1.06,1.4-1.87,2.1-1.18,4.27.62,1.95.61,4-.11,7.23-.77,3.43,1.21,3.75,1.21,6.54,0,2-.51,3-.48,4.22a25.28,25.28,0,0,0,.45,3.18,3.57,3.57,0,0,1-.36,2.29,6.26,6.26,0,0,1-.85,1.74,2.24,2.24,0,0,0-.2,1.9l-.38.14s-.13-1-2.23-2.06a2.67,2.67,0,0,1-1.46-1.76,3.73,3.73,0,0,1-.38-1.14c-.27-1.6.49-1.62.49-4.47,0-1.4-.67-2.39-.77-4-.17-2.81,1.64-4.09.82-6.19-1.71-4.36-1.05-5.55,0-8a11.13,11.13,0,0,0,.53-3.92c.11-2.41.46-2.84.77-3.35a2.49,2.49,0,0,1,1.54-1.07c.36-.12.55-.15.7-.2a3.74,3.74,0,0,0,1.59-.89A10,10,0,0,1,90,71.44a.68.68,0,0,1,.75.63.68.68,0,0,1-.63.75ZM206.88,51.76c-.1,1.67-.77,2.65-.77,4.05,0,2.85.76,2.87.5,4.47a4.36,4.36,0,0,1-.38,1.14,2.71,2.71,0,0,1-1.47,1.76c-2.12,1-2.23,2.06-2.23,2.06l-.38-.14a2.24,2.24,0,0,0-.2-1.9,6.05,6.05,0,0,1-.85-1.75,3.55,3.55,0,0,1-.35-2.29,22.66,22.66,0,0,0,.44-3.17c0-1.24-.48-2.26-.48-4.22,0-2.79,2-3.12,1.21-6.54-.71-3.18-.73-5.28-.11-7.23.69-2.17-.12-2.87-1.18-4.28a3.22,3.22,0,0,1-.87-2.82,4.07,4.07,0,0,0,.11-1.81,8.61,8.61,0,0,0-5.9-3.93.71.71,0,0,1-.63-.75.68.68,0,0,1,.75-.63A9.89,9.89,0,0,1,201,28.16a3.62,3.62,0,0,0,1.59.88l.7.2a2.5,2.5,0,0,1,1.54,1.08c.31.51.66.94.77,3.34a11.13,11.13,0,0,0,.54,3.92c1,2.42,1.68,3.61,0,8-.82,2.1,1,3.38.82,6.19Zm74.69,53.87c.08,1.83.43,3.24-1,5.41-1.54,2.4.46,4.23-.19,6.81a3.54,3.54,0,0,1-.52,1.15,5.49,5.49,0,0,1-2.2,2,2.45,2.45,0,0,0-1.25,1.73l-.44-.08s.08-1.21-1.4-3.39l0-.07a3.07,3.07,0,0,1-.6-1.55,5.64,5.64,0,0,1,.86-3.28,6.88,6.88,0,0,0,.61-5.29,4.61,4.61,0,0,1,0-2.15,24.75,24.75,0,0,0,1-3.1,9.06,9.06,0,0,0-.39-2.71c-.29-1.71.39-3.09-.18-4.43a12.77,12.77,0,0,1-1-2.71c-.52-2,0-3.26,1.24-4.08a.76.76,0,0,1,.18-.09,1.78,1.78,0,0,0,.06-1.48,7.25,7.25,0,0,0-5.05-3.51.75.75,0,0,1-.67-.8.74.74,0,0,1,.8-.67,8.69,8.69,0,0,1,6.35,4.46s0,0,0,0c.44.64.67,1.24,1.16,1.91A3.29,3.29,0,0,1,280.6,91a4.17,4.17,0,0,1,.67,2.68,15.88,15.88,0,0,0-.09,3c.11.94.85,2.46.93,3.29.36,3.23-.65,3.34-.55,5.67Z"/><rect class="cls-1" x="191.24" y="320.13" width="21.23" height="7"/><rect class="cls-1" x="167.75" y="301.6" width="21.21" height="6.99"/><rect class="cls-1" x="179.5" y="310.86" width="21.23" height="6.99"/><path class="cls-1" d="M155.59,329.41a12.46,12.46,0,0,1,.53,3.53v3.45h21.11v-7Z"/><rect class="cls-1" x="191.24" y="301.6" width="21.23" height="6.99"/><rect class="cls-1" x="238.25" y="320.13" width="21.21" height="7"/><rect class="cls-1" x="261.74" y="320.13" width="21.23" height="7"/><path class="cls-1" d="M120.74,327.13h10.67a13.19,13.19,0,0,1,9-6.81,12.88,12.88,0,0,1,1.35-.19H120.74v7Z"/><rect class="cls-1" x="203" y="329.41" width="21.21" height="6.99"/><rect class="cls-1" x="249.99" y="329.41" width="21.23" height="6.99"/><rect class="cls-1" x="214.74" y="301.6" width="11.72" height="6.99"/><rect class="cls-1" x="191.24" y="283.24" width="21.23" height="6.99"/><path class="cls-1" d="M106.72,327.13h11.75v-7H106.72v-2.28h23.5v-7h-23.5v-2.27h11.75v-7H106.72v-2.28h23.5V292.5h-23.5v-2.28h11.75v-7H106.72V281h25.6v-6.47s0-.08-.07-.08H102.82a1.92,1.92,0,0,0-1.92,1.93V343a2.22,2.22,0,0,0,2.21,2.22h26.53s.08,0,.08-.08v-6.43h-23v-2.28h23v-2.53a14.06,14.06,0,0,1,.72-4.45H106.72v-2.28Z"/><rect class="cls-1" x="214.74" y="283.24" width="11.72" height="6.99"/><rect class="cls-1" x="120.74" y="283.24" width="21.23" height="6.99"/><rect class="cls-1" x="144.25" y="283.24" width="21.23" height="6.99"/><rect class="cls-1" x="167.75" y="283.24" width="21.21" height="6.99"/><rect class="cls-1" x="120.74" y="301.6" width="21.23" height="6.99"/><rect class="cls-1" x="132.5" y="292.5" width="21.21" height="6.82"/><rect class="cls-1" x="132.5" y="310.86" width="21.21" height="6.99"/><rect class="cls-1" x="144.25" y="301.6" width="21.23" height="6.99"/><rect class="cls-1" x="285.24" y="320.13" width="21.22" height="7"/><rect class="cls-1" x="155.99" y="310.86" width="21.23" height="6.99"/><path class="cls-1" d="M314.48,317.62v-9h0v2.27H297v7h17.47v2.28h-5.72v7h5.72v2.28H297v7h17.47v2.28H294.71v-9.26H273.5v4.13h0v5.13H247.71v-2.28h0v-7H226.5v9.26H200.72v-2.28h0v-7H179.5v9.26H156.11v6.43s0,.08.07.08h158.3V317.62Z"/><rect class="cls-1" x="167.75" y="320.13" width="21.21" height="7"/><rect class="cls-1" x="155.99" y="292.5" width="21.23" height="6.82"/><rect class="cls-1" x="203" y="310.86" width="21.21" height="6.99"/><rect class="cls-1" x="214.74" y="320.13" width="21.23" height="7"/><rect class="cls-1" x="249.99" y="310.86" width="21.23" height="6.99"/><rect class="cls-1" x="273.5" y="310.86" width="21.21" height="6.99"/><rect class="cls-1" x="226.49" y="310.86" width="21.23" height="6.99"/><rect class="cls-1" x="179.5" y="292.5" width="21.23" height="6.82"/><rect class="cls-1" x="203" y="292.5" width="21.21" height="6.82"/><rect class="cls-1" x="421.18" y="326.85" width="21.22" height="6.95"/><rect class="cls-1" x="409.44" y="336.09" width="21.22" height="6.95"/><rect class="cls-1" x="407.41" y="326.85" width="11.49" height="6.96"/><rect class="cls-1" x="409.44" y="317.62" width="21.22" height="6.95"/><rect class="cls-1" x="342.41" y="326.85" width="21.21" height="6.96"/><rect class="cls-1" x="330.65" y="336.09" width="21.22" height="6.95"/><rect class="cls-1" x="330.65" y="317.62" width="21.22" height="6.95"/><rect class="cls-1" x="354.16" y="336.09" width="9.37" height="6.95"/><rect class="cls-1" x="354.16" y="317.62" width="9.37" height="6.96"/><path class="cls-1" d="M444.23,317.62h-11.3v6.95h11.3v11.51h-11.3V343h11.3v2.28H319V343h9.35v-6.94H319V333.8h21.1v-6.95H319v-2.28h9.35v-6.95H314.48v27.56h0v4.25a2.14,2.14,0,0,0,2.14,2.14h129.3a2.88,2.88,0,0,0,2.87-2.88V317.62Z"/><path class="cls-1" d="M144.25,320.13h0a13.13,13.13,0,0,1,10.43,7h10.79v-7Z"/><rect class="cls-2" x="295.39" y="214.88" width="12.34" height="1.67"/><rect class="cls-2" x="295.39" y="206.45" width="12.34" height="1.53"/><rect class="cls-2" x="186.66" y="250.42" width="14.74" height="5.71"/><rect class="cls-2" x="280.36" y="198.06" width="12.34" height="1.49"/><rect class="cls-2" x="295.39" y="210.66" width="12.34" height="1.53"/><rect class="cls-2" x="280.36" y="210.66" width="12.34" height="1.53"/><rect class="cls-2" x="280.36" y="202.25" width="12.34" height="1.53"/><rect class="cls-2" x="295.39" y="202.25" width="12.34" height="1.53"/><rect class="cls-2" x="280.36" y="206.45" width="12.34" height="1.53"/><rect class="cls-2" x="186.66" y="259.15" width="14.74" height="3.28"/><rect class="cls-2" x="168.1" y="271.77" width="15.52" height="6.13"/><polygon class="cls-2" points="115.26 225.91 117.54 225.91 117.54 218.16 112.45 218.16 115.26 225.91"/><polygon class="cls-2" points="119.96 225.91 122.25 225.91 125.06 218.16 119.96 218.16 119.96 225.91"/><rect class="cls-2" x="295.39" y="198.06" width="12.34" height="1.49"/><rect class="cls-2" x="168.1" y="259.15" width="15.52" height="3.28"/><rect class="cls-2" x="168.1" y="250.42" width="15.52" height="5.71"/><rect class="cls-2" x="168.1" y="265.47" width="15.52" height="3.28"/><rect class="cls-2" x="186.66" y="271.77" width="14.74" height="6.13"/><rect class="cls-2" x="186.66" y="265.47" width="14.74" height="3.28"/><rect class="cls-2" x="280.36" y="214.88" width="12.34" height="1.67"/><rect class="cls-2" x="427.84" y="271.77" width="16.4" height="16.01"/><rect class="cls-2" x="427.84" y="252.52" width="16.4" height="16.23"/><rect class="cls-2" x="366.56" y="252.49" width="17.39" height="16.24"/><rect class="cls-2" x="386.99" y="290.82" width="17.39" height="16.01"/><rect class="cls-2" x="427.84" y="290.82" width="16.4" height="16.01"/><rect class="cls-2" x="407.41" y="252.51" width="17.39" height="16.23"/><rect class="cls-2" x="386.99" y="252.51" width="17.39" height="16.24"/><rect class="cls-2" x="407.41" y="290.82" width="17.39" height="16.01"/><rect class="cls-2" x="386.99" y="271.77" width="17.39" height="16.01"/><rect class="cls-2" x="407.41" y="271.77" width="17.39" height="16.01"/><rect class="cls-2" x="366.56" y="271.77" width="17.39" height="16.01"/><rect class="cls-2" x="366.56" y="290.82" width="17.39" height="16.01"/><path class="cls-1" d="M119.38,207.68a1.05,1.05,0,0,0-1.26,0l-11.53,8.58a1,1,0,0,0,.62,1.88h2.65l3.18,8.79.79,2.76-.09,44.71h10l-.09-44.71.8-2.76,3.18-8.79h2.64a1,1,0,0,0,.62-1.88l-11.53-8.58Zm-1.84,18.23h-2.29l-2.81-7.75h5.09v7.75Zm4.71,0H120v-7.75h5.09l-2.81,7.75Z"/><path class="cls-1" d="M310.43,195.37H277.68v23.87h32.75Zm-17.72,21.18H280.37v-1.67h12.34Zm0-4.36H280.37v-1.53h12.34Zm0-4.21H280.37v-1.53h12.34Zm0-4.22H280.37v-1.53h12.34Zm0-4.21H280.37v-1.49h12.34Zm15,17H295.39v-1.67h12.34Zm0-4.36H295.39v-1.53h12.34Zm0-4.21H295.39v-1.53h12.34Zm0-4.22H295.39v-1.53h12.34Zm0-4.21H295.39v-1.49h12.34Z"/><path class="cls-1" d="M464.17,249.58a13.81,13.81,0,0,1-6.46-1.58l1.13,8.73h2.38v4l-8.44,8.44v82.2l5.72-4.9V271.6l8.44-8.44v-6.41H469l1.08-8.48a14.14,14.14,0,0,1-6,1.34Z"/><path class="cls-1" d="M147.32,256.73h2.38l1.13-8.73a14,14,0,0,1-12.42.24l1.09,8.48h2.09v6.42l8.44,8.44v9.33h5.72v-11.7l-8.44-8.44v-4Z"/><path class="cls-1" d="M448.79,239.75v-6l-4.56-3v8.29l-86.2,0-5.41,13.42h10.91v16.25h0v3h0v16h0v3h0v16h0v3h0v35.42h43.76v0h.14V309.88h36.81v7.74h4.56v-65.1h5.14l-5.14-12.77ZM384,306.84H366.56v-16H384Zm0-19H366.56v-16H384Zm0-19.06H366.56V252.49H384Zm20.43,38.11H387v-16h17.39Zm0-19H387v-16h17.39Zm0-19.06H387V252.49h17.39Zm20.42,38.11H407.41v-16H424.8Zm0-19H407.41v-16H424.8Zm0-19.06H407.41V252.51H424.8Zm19.43,38.11h-16.4v-16h16.4Zm0-19h-16.4v-16h16.4Zm0-19.06h-16.4V252.51h16.4Z"/><path class="cls-1" d="M314.48,238.53H168.12v-5h-4.56v6.88l-4.67,10h4.67v30.53H201.4v0H206V250.42h20.5v58.17h88v9H319V225.71h-4.55v12.82ZM183.62,277.91H168.1v-6.13h15.52Zm0-9.18H168.1v-3.28h15.52Zm0-6.3H168.1v-3.28h15.52Zm0-6.32H168.1V250.4h15.52Zm17.78,21.8H186.66v-6.13H201.4Zm0-9.18H186.66v-3.28H201.4Zm0-6.3H186.66v-3.28H201.4Zm0-6.32H186.66V250.4H201.4Zm40.56,48H230.67V293H242Zm0-14.17H230.67V278.83H242Zm0-14.16H230.67V264.67H242Zm0-14.17H230.67V250.49H242Zm14,42.5H244.68V293H256Zm0-14.17H244.68V278.83H256Zm0-14.16H244.68V264.67H256Zm0-14.17H244.68V250.49H256Zm14.89,42.5H259.57V293h11.29Zm0-14.17H259.57V278.83h11.29Zm0-14.16H259.57V264.67h11.29Zm0-14.17H259.57V250.49h11.29Zm14,42.5H273.6V293h11.29Zm0-14.17H273.6V278.83h11.29Zm0-14.16H273.6V264.67h11.29Zm0-14.17H273.6V250.49h11.29Zm14.89,42.5H288.49V293h11.29Zm0-14.17H288.49V278.83h11.29Zm0-14.16H288.49V264.67h11.29Zm0-14.17H288.49V250.49h11.29Zm14,42.5H302.5V293h11.29Zm0-14.17H302.5V278.83h11.29Zm0-14.16H302.5V264.67h11.29Zm0-14.17H302.5V250.49h11.29Z"/><path class="cls-1" d="M354.35,190.2,334.26,183l.83-1.79-19.9-7.14a9.43,9.43,0,0,0,.45-1.85l0-.06h0a10,10,0,0,0,.09-1.24,9.27,9.27,0,0,0-2.36-6.16,9.37,9.37,0,0,0-2.62-2,10.85,10.85,0,0,0-3.13-1l-.28-.06a2.92,2.92,0,0,1-.76-.19,2.58,2.58,0,0,1-.87-.59,3.19,3.19,0,0,1-.77-1.52,10.52,10.52,0,0,0-.59-1.8,11.77,11.77,0,0,0-7.5-6.53,12,12,0,0,0-3.22-.44,11.75,11.75,0,0,0-11.16,8.1c-.13.37-.16.81-.32,1.16-.65,1.51-2.31,1.75-3.73,2.12a9.22,9.22,0,0,0-6.87,8.92,10,10,0,0,0,.09,1.23h0l0,0a8.32,8.32,0,0,0,.47,1.86l-19.9,7.14.84,1.78-20.25,7.26.83,1.78-20.25,7.25.84,1.79L194,208.31l.83,1.78-20.25,7.26.84,1.78-20.25,7.25.83,1.79-20.25,7.25,3.23,6.92,3.44-1.61,1.68,3.62,139-64.57a9.4,9.4,0,0,0,2.68-1.2,8.32,8.32,0,0,0,15.69,0,9.74,9.74,0,0,0,2.69,1.2l37,17.19,13.14-6.82Z"/><path class="cls-1" d="M455,226.29l1.07-1.64-19-10.1,1.08-1.65-19-10.1,1.08-1.64-18.82-10a8.94,8.94,0,0,0,1.76-5.33,9.09,9.09,0,0,0-4.86-8,10.35,10.35,0,0,0-3.07-1l-.26-.05a3,3,0,0,1-.74-.18,2.87,2.87,0,0,1-.84-.58,3.05,3.05,0,0,1-.75-1.5,8.61,8.61,0,0,0-.57-1.76,11.93,11.93,0,0,0-1.78-2.81,11.65,11.65,0,0,0-5.56-3.56,11.17,11.17,0,0,0-3.14-.43,11.48,11.48,0,0,0-10.91,7.91,11.06,11.06,0,0,1-.3,1.13c-.65,1.47-2.27,1.71-3.65,2.08a9,9,0,0,0-5,14l-18.82,10,1.08,1.64-19,10.1,1.07,1.65-19,10.1,1.07,1.64-19,10.1,4.19,6.39,3.18-2.08,2.19,3.34,75.84-49.6a8.15,8.15,0,0,0,14,0L464.44,244l2.19-3.34,3.18,2.08,4.19-6.39-19-10.1Z"/></svg>